<svg width="18" height="18" viewBox="0 0 18 18" fill="none" xmlns="http://www.w3.org/2000/svg">
<path d="M14.0259 12.8475L17.595 16.4159L16.4159 17.595L12.8475 14.0259C11.5198 15.0902 9.86835 15.6691 8.16669 15.6667C4.02669 15.6667 0.666687 12.3067 0.666687 8.16669C0.666687 4.02669 4.02669 0.666687 8.16669 0.666687C12.3067 0.666687 15.6667 4.02669 15.6667 8.16669C15.6691 9.86835 15.0902 11.5198 14.0259 12.8475ZM12.3542 12.2292C13.4118 11.1416 14.0024 9.68371 14 8.16669C14 4.94335 11.3892 2.33335 8.16669 2.33335C4.94335 2.33335 2.33335 4.94335 2.33335 8.16669C2.33335 11.3892 4.94335 14 8.16669 14C9.68371 14.0024 11.1416 13.4118 12.2292 12.3542L12.3542 12.2292Z" fill="#1D1D1D"/>
</svg>
